<?xml version="1.0" encoding="UTF-8" standalone="no"?>
<!-- Created with Inkscape (http://www.inkscape.org/) -->

<svg
   xmlns:dc="http://purl.org/dc/elements/1.1/"
   xmlns:cc="http://creativecommons.org/ns#"
   xmlns:rdf="http://www.w3.org/1999/02/22-rdf-syntax-ns#"
   xmlns:svg="http://www.w3.org/2000/svg"
   xmlns="http://www.w3.org/2000/svg"
   xmlns:sodipodi="http://sodipodi.sourceforge.net/DTD/sodipodi-0.dtd"
   xmlns:inkscape="http://www.inkscape.org/namespaces/inkscape"
   width="194.86076"
   height="50.640705"
   viewBox="0 0 194.86076 50.640704"
   id="svg5554"
   version="1.1"
   inkscape:version="0.91 r13725"
   sodipodi:docname="g4626.svg">
  <defs
     id="defs5556" />
  <sodipodi:namedview
     id="base"
     pagecolor="#ffffff"
     bordercolor="#666666"
     borderopacity="1.0"
     inkscape:pageopacity="0.0"
     inkscape:pageshadow="2"
     inkscape:zoom="0.7"
     inkscape:cx="178.2377"
     inkscape:cy="-167.5531"
     inkscape:document-units="px"
     inkscape:current-layer="g4594"
     showgrid="false"
     fit-margin-top="0"
     fit-margin-left="0"
     fit-margin-right="0"
     fit-margin-bottom="0"
     units="px"
     inkscape:window-width="1080"
     inkscape:window-height="675"
     inkscape:window-x="337"
     inkscape:window-y="30"
     inkscape:window-maximized="0" />
  <metadata
     id="metadata5559">
    <rdf:RDF>
      <cc:Work
         rdf:about="">
        <dc:format>image/svg+xml</dc:format>
        <dc:type
           rdf:resource="http://purl.org/dc/dcmitype/StillImage" />
        <dc:title></dc:title>
      </cc:Work>
    </rdf:RDF>
  </metadata>
  <g
     inkscape:label="Vrstva 1"
     inkscape:groupmode="layer"
     id="layer1"
     transform="translate(-99.712475,-201.32757)">
    <g
       transform="translate(1.5498969,-175.29837)"
       style="font-style:normal;font-weight:normal;font-size:40px;line-height:125%;font-family:sans-serif;letter-spacing:0px;word-spacing:0px;opacity:0.98999999;fill:#ffa023;fill-opacity:1;stroke:none;stroke-width:1px;stroke-linecap:butt;stroke-linejoin:miter;stroke-opacity:1"
       id="flowRoot4586">
      <path
         d="m 116.34258,395.67594 q -2.79,0.12 -4.59,0.48 -1.8,0.36 -2.85,0.9 -1.05,0.54 -1.47,1.23 -0.39,0.69 -0.39,1.5 0,1.59 0.87,2.25 0.87,0.63 2.55,0.63 1.8,0 3.15,-0.63 1.35,-0.63 2.73,-2.04 l 0,-4.32 z m -16.740002,-14.13 q 2.820002,-2.49 6.240002,-3.69 3.45,-1.23 7.38,-1.23 2.82,0 5.07,0.93 2.28,0.9 3.84,2.55 1.59,1.62 2.43,3.87 0.84,2.25 0.84,4.92 l 0,19.44 -4.26,0 q -1.32,0 -2.01,-0.36 -0.66,-0.36 -1.11,-1.5 l -0.66,-1.71 q -1.17,0.99 -2.25,1.74 -1.08,0.75 -2.25,1.29 -1.14,0.51 -2.46,0.75 -1.29,0.27 -2.88,0.27 -2.13,0 -3.87,-0.54 -1.74,-0.57 -2.97,-1.65 -1.200002,-1.08 -1.860002,-2.67 -0.66,-1.62 -0.66,-3.72 0,-1.68 0.84,-3.39 0.84,-1.74 2.910002,-3.15 2.07,-1.44 5.58,-2.4 3.51,-0.96 8.85,-1.08 l 0,-1.32 q 0,-2.73 -1.14,-3.93 -1.11,-1.23 -3.18,-1.23 -1.65,0 -2.7,0.36 -1.05,0.36 -1.89,0.81 -0.81,0.45 -1.59,0.81 -0.78,0.36 -1.86,0.36 -0.96,0 -1.62,-0.48 -0.66,-0.48 -1.08,-1.14 l -1.680002,-2.91 z"
         style="font-style:normal;font-variant:normal;font-weight:900;font-stretch:normal;font-size:60px;font-family:Lato;-inkscape-font-specification:'Lato Heavy';fill:#ffa023;fill-opacity:1"
         id="path6161" />
      <path
         d="m 139.92727,380.58594 q 0.9,-0.84 1.86,-1.56 0.96,-0.72 2.04,-1.2 1.11,-0.51 2.37,-0.78 1.29,-0.3 2.79,-0.3 2.55,0 4.5,0.9 1.98,0.87 3.33,2.46 1.35,1.56 2.04,3.75 0.69,2.16 0.69,4.71 l 0,19.77 -9.3,0 0,-19.77 q 0,-2.28 -1.05,-3.54 -1.05,-1.29 -3.09,-1.29 -1.53,0 -2.88,0.66 -1.32,0.63 -2.58,1.74 l 0,22.2 -9.3,0 0,-31.11 5.76,0 q 1.74,0 2.28,1.56 l 0.54,1.8 z"
         style="font-style:normal;font-variant:normal;font-weight:900;font-stretch:normal;font-size:60px;font-family:Lato;-inkscape-font-specification:'Lato Heavy';fill:#ffa023;fill-opacity:1"
         id="path6163" />
      <path
         d="m 185.33602,384.03594 q -0.36,0.57 -0.78,0.81 -0.39,0.24 -1.02,0.24 -0.66,0 -1.32,-0.27 -0.66,-0.3 -1.44,-0.63 -0.75,-0.33 -1.71,-0.6 -0.96,-0.3 -2.19,-0.3 -1.77,0 -2.73,0.69 -0.93,0.66 -0.93,1.86 0,0.87 0.6,1.44 0.63,0.57 1.65,1.02 1.02,0.42 2.31,0.81 1.29,0.39 2.64,0.87 1.35,0.48 2.64,1.14 1.29,0.63 2.31,1.59 1.02,0.93 1.62,2.28 0.63,1.35 0.63,3.24 0,2.31 -0.84,4.26 -0.84,1.95 -2.52,3.36 -1.65,1.41 -4.11,2.19 -2.43,0.78 -5.61,0.78 -1.59,0 -3.18,-0.3 -1.59,-0.3 -3.09,-0.81 -1.47,-0.51 -2.73,-1.2 -1.26,-0.72 -2.16,-1.53 l 2.16,-3.42 q 0.36,-0.6 0.9,-0.93 0.57,-0.36 1.44,-0.36 0.81,0 1.44,0.36 0.66,0.36 1.41,0.78 0.75,0.42 1.74,0.78 1.02,0.36 2.55,0.36 1.08,0 1.83,-0.21 0.75,-0.24 1.2,-0.63 0.45,-0.39 0.66,-0.87 0.21,-0.48 0.21,-0.99 0,-0.93 -0.63,-1.53 -0.63,-0.6 -1.65,-1.02 -1.02,-0.45 -2.34,-0.81 -1.29,-0.39 -2.64,-0.87 -1.35,-0.48 -2.67,-1.14 -1.29,-0.69 -2.31,-1.71 -1.02,-1.05 -1.65,-2.55 -0.63,-1.5 -0.63,-3.63 0,-1.98 0.75,-3.75 0.78,-1.8 2.31,-3.15 1.53,-1.35 3.84,-2.13 2.31,-0.81 5.4,-0.81 1.68,0 3.24,0.3 1.59,0.3 2.97,0.84 1.38,0.54 2.52,1.29 1.14,0.72 2.01,1.59 l -2.1,3.27 z"
         style="font-style:normal;font-variant:normal;font-weight:900;font-stretch:normal;font-size:60px;font-family:Lato;-inkscape-font-specification:'Lato Heavy';fill:#ffa023;fill-opacity:1"
         id="path6165" />
      <path
         d="m 238.06477,377.22594 -9.66,31.11 -7.56,0 q -0.6,0 -1.02,-0.36 -0.42,-0.36 -0.66,-1.2 l -4.44,-15.51 q -0.33,-1.05 -0.6,-2.07 -0.24,-1.02 -0.45,-2.07 -0.21,1.05 -0.48,2.1 -0.24,1.05 -0.57,2.1 l -4.5,15.45 q -0.45,1.56 -1.98,1.56 l -7.2,0 -9.66,-31.11 7.44,0 q 0.99,0 1.65,0.48 0.69,0.45 0.93,1.14 l 3.12,13.95 q 0.39,1.59 0.69,3.09 0.3,1.47 0.54,2.97 0.39,-1.5 0.81,-2.97 0.45,-1.5 0.96,-3.09 l 3.9,-13.98 q 0.24,-0.69 0.9,-1.14 0.66,-0.48 1.56,-0.48 l 4.14,0 q 0.99,0 1.65,0.48 0.69,0.45 0.93,1.14 l 3.72,13.98 q 0.45,1.59 0.87,3.09 0.45,1.5 0.81,3.03 0.24,-1.5 0.57,-3 0.33,-1.5 0.75,-3.12 l 3.3,-13.95 q 0.24,-0.69 0.9,-1.14 0.66,-0.48 1.56,-0.48 l 7.08,0 z"
         style="font-style:normal;font-variant:normal;font-weight:900;font-stretch:normal;font-size:60px;font-family:Lato;-inkscape-font-specification:'Lato Heavy';fill:#ffa023;fill-opacity:1"
         id="path6167" />
      <path
         d="m 260.15039,389.04594 q 0,-1.11 -0.3,-2.16 -0.27,-1.05 -0.93,-1.86 -0.63,-0.84 -1.68,-1.35 -1.05,-0.51 -2.55,-0.51 -2.64,0 -4.14,1.53 -1.5,1.5 -1.98,4.35 l 11.58,0 z m -11.7,5.4 q 0.45,3.9 2.37,5.67 1.92,1.74 4.95,1.74 1.62,0 2.79,-0.39 1.17,-0.39 2.07,-0.87 0.93,-0.48 1.68,-0.87 0.78,-0.39 1.62,-0.39 1.11,0 1.68,0.81 l 2.7,3.33 q -1.44,1.65 -3.12,2.7 -1.65,1.02 -3.42,1.62 -1.74,0.57 -3.51,0.78 -1.74,0.24 -3.33,0.24 -3.27,0 -6.15,-1.05 -2.85,-1.08 -5.01,-3.18 -2.13,-2.1 -3.39,-5.22 -1.23,-3.12 -1.23,-7.26 0,-3.12 1.05,-5.91 1.08,-2.79 3.06,-4.89 2.01,-2.1 4.83,-3.33 2.85,-1.23 6.42,-1.23 3.09,0 5.64,0.96 2.58,0.96 4.41,2.79 1.86,1.83 2.88,4.5 1.05,2.64 1.05,6 0,1.05 -0.09,1.71 -0.09,0.66 -0.33,1.05 -0.24,0.39 -0.66,0.54 -0.39,0.15 -1.02,0.15 l -17.94,0 z"
         style="font-style:normal;font-variant:normal;font-weight:900;font-stretch:normal;font-size:60px;font-family:Lato;-inkscape-font-specification:'Lato Heavy';fill:#ffa023;fill-opacity:1"
         id="path6169" />
      <path
         d="m 281.84414,382.02594 q 1.44,-2.52 3.3,-3.96 1.89,-1.44 4.32,-1.44 2.1,0 3.42,0.99 l -0.6,6.84 q -0.15,0.66 -0.51,0.9 -0.33,0.24 -0.93,0.24 -0.24,0 -0.63,-0.03 -0.39,-0.03 -0.81,-0.06 -0.42,-0.06 -0.87,-0.09 -0.42,-0.06 -0.78,-0.06 -2.04,0 -3.27,1.08 -1.2,1.08 -2.04,3 l 0,18.9 -9.3,0 0,-31.11 5.52,0 q 0.69,0 1.14,0.12 0.48,0.12 0.78,0.39 0.33,0.24 0.48,0.66 0.18,0.42 0.3,1.02 l 0.48,2.61 z"
         style="font-style:normal;font-variant:normal;font-weight:900;font-stretch:normal;font-size:60px;font-family:Lato;-inkscape-font-specification:'Lato Heavy';fill:#ffa023;fill-opacity:1"
         id="path6171" />
    </g>
    <g
       transform="matrix(0.37272714,0,0,0.37272714,124.1837,143.63591)"
       id="g4594"
       inkscape:export-filename="/Users/mvecera/g4626.png"
       inkscape:export-xdpi="99"
       inkscape:export-ydpi="99">
      <rect
         ry="4.4221916"
         y="251.3622"
         x="262.14285"
         height="39.285706"
         width="194.99998"
         id="rect4596"
         style="opacity:0.98999999;fill:#6f6f6f;fill-opacity:0.99215686;stroke:none;stroke-width:10;stroke-linecap:round;stroke-linejoin:round;stroke-miterlimit:4;stroke-dasharray:none;stroke-dashoffset:0;stroke-opacity:1" />
      <g
         transform="translate(172.56257,-98.879012)"
         style="font-style:normal;font-weight:normal;font-size:40px;line-height:125%;font-family:sans-serif;letter-spacing:0px;word-spacing:0px;opacity:0.98999999;fill:#ededed;fill-opacity:0.99215686;stroke:none;stroke-width:1px;stroke-linecap:butt;stroke-linejoin:miter;stroke-opacity:1"
         id="flowRoot4598">
        <path
           d="m 105.56008,382.63281 -5.950002,0 0,-25.4975 5.950002,0 0,25.4975 z"
           style="font-style:normal;font-variant:normal;font-weight:900;font-stretch:normal;font-size:35px;font-family:Lato;-inkscape-font-specification:'Lato Heavy';fill:#ededed;fill-opacity:0.99215686"
           id="path6174" />
        <path
           d="m 132.73922,357.13531 0,25.4975 -3.08,0 q -0.6825,0 -1.155,-0.21 -0.455,-0.2275 -0.91,-0.77 l -12.0225,-15.2075 q 0.07,0.6825 0.0875,1.33 0.035,0.63 0.035,1.19 l 0,13.6675 -5.215,0 0,-25.4975 3.115,0 q 0.385,0 0.6475,0.035 0.2625,0.035 0.4725,0.14 0.21,0.0875 0.4025,0.2625 0.1925,0.175 0.4375,0.4725 l 12.1275,15.3125 q -0.0875,-0.735 -0.1225,-1.4175 -0.035,-0.7 -0.035,-1.3125 l 0,-13.4925 5.215,0 z"
           style="font-style:normal;font-variant:normal;font-weight:900;font-stretch:normal;font-size:35px;font-family:Lato;-inkscape-font-specification:'Lato Heavy';fill:#ededed;fill-opacity:0.99215686"
           id="path6176" />
        <path
           d="m 151.77375,362.31531 q -0.2625,0.42 -0.56,0.63 -0.28,0.21 -0.735,0.21 -0.4025,0 -0.875,-0.245 -0.455,-0.2625 -1.05,-0.5775 -0.5775,-0.315 -1.33,-0.56 -0.7525,-0.2625 -1.715,-0.2625 -1.6625,0 -2.485,0.7175 -0.805,0.7 -0.805,1.9075 0,0.77 0.49,1.2775 0.49,0.5075 1.2775,0.875 0.805,0.3675 1.82,0.6825 1.0325,0.2975 2.1,0.6825 1.0675,0.3675 2.0825,0.875 1.0325,0.5075 1.82,1.295 0.805,0.7875 1.295,1.925 0.49,1.12 0.49,2.7125 0,1.7675 -0.6125,3.3075 -0.6125,1.54 -1.785,2.695 -1.155,1.1375 -2.87,1.8025 -1.6975,0.6475 -3.8675,0.6475 -1.19,0 -2.4325,-0.245 -1.225,-0.245 -2.38,-0.6825 -1.155,-0.455 -2.17,-1.0675 -1.015,-0.6125 -1.7675,-1.365 l 1.75,-2.765 q 0.21,-0.2975 0.5425,-0.49 0.35,-0.21 0.7525,-0.21 0.525,0 1.05,0.3325 0.5425,0.3325 1.2075,0.735 0.6825,0.4025 1.5575,0.735 0.875,0.3325 2.065,0.3325 1.61,0 2.5025,-0.7 0.8925,-0.7175 0.8925,-2.2575 0,-0.8925 -0.49,-1.4525 -0.49,-0.56 -1.295,-0.9275 -0.7875,-0.3675 -1.8025,-0.6475 -1.015,-0.28 -2.0825,-0.6125 -1.0675,-0.35 -2.0825,-0.84 -1.015,-0.5075 -1.82,-1.3125 -0.7875,-0.8225 -1.2775,-2.03 -0.49,-1.225 -0.49,-3.01 0,-1.435 0.5775,-2.8 0.5775,-1.365 1.6975,-2.4325 1.12,-1.0675 2.7475,-1.6975 1.6275,-0.6475 3.7275,-0.6475 1.1725,0 2.275,0.1925 1.12,0.175 2.1175,0.5425 0.9975,0.35 1.855,0.8575 0.875,0.49 1.5575,1.12 l -1.47,2.7475 z"
           style="font-style:normal;font-variant:normal;font-weight:900;font-stretch:normal;font-size:35px;font-family:Lato;-inkscape-font-specification:'Lato Heavy';fill:#ededed;fill-opacity:0.99215686"
           id="path6178" />
        <path
           d="m 175.42281,361.82531 -7.175,0 0,20.8075 -5.915,0 0,-20.8075 -7.175,0 0,-4.69 20.265,0 0,4.69 z"
           style="font-style:normal;font-variant:normal;font-weight:900;font-stretch:normal;font-size:35px;font-family:Lato;-inkscape-font-specification:'Lato Heavy';fill:#ededed;fill-opacity:0.99215686"
           id="path6180" />
        <path
           d="m 184.37844,382.63281 -5.95,0 0,-25.4975 5.95,0 0,25.4975 z"
           style="font-style:normal;font-variant:normal;font-weight:900;font-stretch:normal;font-size:35px;font-family:Lato;-inkscape-font-specification:'Lato Heavy';fill:#ededed;fill-opacity:0.99215686"
           id="path6182" />
        <path
           d="m 207.62008,361.82531 -7.175,0 0,20.8075 -5.915,0 0,-20.8075 -7.175,0 0,-4.69 20.265,0 0,4.69 z"
           style="font-style:normal;font-variant:normal;font-weight:900;font-stretch:normal;font-size:35px;font-family:Lato;-inkscape-font-specification:'Lato Heavy';fill:#ededed;fill-opacity:0.99215686"
           id="path6184" />
        <path
           d="m 221.2657,377.96031 q 1.19,0 2.1175,-0.385 0.945,-0.4025 1.5925,-1.1375 0.6475,-0.735 0.98,-1.785 0.35,-1.0675 0.35,-2.415 l 0,-15.1025 5.915,0 0,15.1025 q 0,2.345 -0.77,4.305 -0.7525,1.96 -2.17,3.3775 -1.4175,1.4175 -3.4475,2.205 -2.03,0.7875 -4.5675,0.7875 -2.555,0 -4.585,-0.7875 -2.03,-0.7875 -3.4475,-2.205 -1.4175,-1.4175 -2.17,-3.3775 -0.7525,-1.96 -0.7525,-4.305 l 0,-15.1025 5.915,0 0,15.085 q 0,1.3475 0.3325,2.415 0.35,1.05 0.9975,1.8025 0.6475,0.735 1.575,1.1375 0.945,0.385 2.135,0.385 z"
           style="font-style:normal;font-variant:normal;font-weight:900;font-stretch:normal;font-size:35px;font-family:Lato;-inkscape-font-specification:'Lato Heavy';fill:#ededed;fill-opacity:0.99215686"
           id="path6186" />
        <path
           d="m 255.12984,361.82531 -7.175,0 0,20.8075 -5.915,0 0,-20.8075 -7.175,0 0,-4.69 20.265,0 0,4.69 z"
           style="font-style:normal;font-variant:normal;font-weight:900;font-stretch:normal;font-size:35px;font-family:Lato;-inkscape-font-specification:'Lato Heavy';fill:#ededed;fill-opacity:0.99215686"
           id="path6188" />
        <path
           d="m 264.08547,361.68531 0,5.95 8.015,0 0,4.375 -8.015,0 0,6.0725 10.465,0 0,4.55 -16.415,0 0,-25.4975 16.415,0 0,4.55 -10.465,0 z"
           style="font-style:normal;font-variant:normal;font-weight:900;font-stretch:normal;font-size:35px;font-family:Lato;-inkscape-font-specification:'Lato Heavy';fill:#ededed;fill-opacity:0.99215686"
           id="path6190" />
      </g>
    </g>
  </g>
</svg>
